<?xml version="1.0" encoding="utf-8"?>
<!-- Uploaded to: SVG Repo, www.svgrepo.com, Generator: SVG Repo Mixer Tools -->
<svg width="800px" height="800px" viewBox="0 0 1024 1024" class="icon"  version="1.1" xmlns="http://www.w3.org/2000/svg"><path d="M213.312 896a84.757333 84.757333 0 0 0 60.330667-25.002667L938.666667 192l-30.250667-30.08-664.981333 678.954667a42.730667 42.730667 0 0 1-60.288-0.042667 42.730667 42.730667 0 0 1 0-60.330667L152.96 750.336A85.354667 85.354667 0 0 0 213.312 896z" fill="#B0BEC5" /><path d="M149.333333 598.677333s149.077333 22.4 189.333334 178.154667C498.410667 798.4 512 960 512 960l363.84-703.829333-30.506667-29.824L149.333333 598.677333z" fill="#AD1457" /><path d="M149.333333 598.677333s149.077333 22.4 189.333334 178.154667L861.674667 242.346667l-16.341334-16L149.333333 598.677333z" fill="#F50057" /><path d="M213.333333 394.88c0-9.344 3.008-17.024 9.002667-23.104 5.973333-6.037333 13.610667-9.109333 22.997333-9.109333 9.344 0 17.024 3.072 22.997334 9.109333 5.994667 6.08 9.002667 13.76 9.002666 23.104 0 9.237333-2.944 16.789333-8.810666 22.805333-5.845333 5.994667-13.589333 8.981333-23.189334 8.981334-9.621333 0-17.344-2.986667-23.189333-8.981334-5.888-6.016-8.810667-13.589333-8.810667-22.805333zM334.954667 108.714667C316.458667 93.098667 290.538667 85.333333 257.045333 85.333333c-33.152 0-59.328 8.213333-78.506666 24.597334C161.493333 124.565333 149.333333 149.333333 149.333333 192h64c1.536-7.936-4.010667-52.885333 43.733334-52.885333 24.597333 0 40.682667 5.866667 40.682666 31.552 0 8.533333-2.368 16.64-7.125333 24.341333-4.736 7.68-26.368 24.576-40.661333 36.842667s-24.128 24.661333-29.482667 37.312C215.104 281.749333 213.333333 298.709333 213.333333 320h64l0.938667-13.930667c1.749333-14.869333 4.330667-27.904 16.32-38.954666l19.178667-17.557334c14.997333-14.016 33.877333-26.730667 39.872-38.208 6.016-11.52 9.024-23.701333 9.024-36.650666 0-28.416-9.258667-50.410667-27.712-65.984z" fill="#2196F3" /></svg>